<svg xmlns="http://www.w3.org/2000/svg" width="30.985" height="24.086" viewBox="0 0 30.985 24.086">
  <g id="_001-money" data-name="001-money" transform="translate(0 -57)">
    <path id="Path_34696" data-name="Path 34696" d="M29.472,61.158V59.723A2.726,2.726,0,0,0,26.749,57H4.236a2.726,2.726,0,0,0-2.723,2.723v1.435A2.726,2.726,0,0,0,0,63.6V78.363a2.726,2.726,0,0,0,2.723,2.723H28.262a2.726,2.726,0,0,0,2.723-2.723V63.6A2.726,2.726,0,0,0,29.472,61.158ZM4.236,58.816H26.749a.909.909,0,0,1,.908.908v1.15H3.328v-1.15A.909.909,0,0,1,4.236,58.816ZM29.169,78.363a.909.909,0,0,1-.908.908H2.723a.909.909,0,0,1-.908-.908V63.6a.909.909,0,0,1,.908-.908H28.262a.909.909,0,0,1,.908.908Z" fill="#784598"/>
    <path id="Path_34697" data-name="Path 34697" d="M80.178,178.937a1.03,1.03,0,0,1-1.029-1.029.908.908,0,0,0-.908-.908h-18.4a.908.908,0,0,0-.908.908,1.03,1.03,0,0,1-1.029,1.029.908.908,0,0,0-.908.908v7.746a.908.908,0,0,0,.908.908,1.03,1.03,0,0,1,1.029,1.029.908.908,0,0,0,.908.908h18.4a.908.908,0,0,0,.908-.908,1.03,1.03,0,0,1,1.029-1.029.908.908,0,0,0,.908-.908v-7.746A.908.908,0,0,0,80.178,178.937Zm-.908,7.895a2.858,2.858,0,0,0-1.788,1.788H60.6a2.858,2.858,0,0,0-1.788-1.788V180.6a2.858,2.858,0,0,0,1.788-1.788H77.482A2.858,2.858,0,0,0,79.27,180.6Z" transform="translate(-53.551 -112.738)" fill="#784598"/>
    <path id="Path_34698" data-name="Path 34698" d="M204.328,233a3.328,3.328,0,1,0,3.328,3.328A3.332,3.332,0,0,0,204.328,233Zm0,4.841a1.513,1.513,0,1,1,1.513-1.513A1.515,1.515,0,0,1,204.328,237.841Z" transform="translate(-188.836 -165.349)" fill="#784598"/>
    <path id="Path_34699" data-name="Path 34699" d="M115.844,273h-1.937a.908.908,0,1,0,0,1.816h1.937a.908.908,0,1,0,0-1.816Z" transform="translate(-106.162 -202.928)" fill="#784598"/>
    <path id="Path_34700" data-name="Path 34700" d="M339.844,273h-1.937a.908.908,0,1,0,0,1.816h1.937a.908.908,0,1,0,0-1.816Z" transform="translate(-316.606 -202.928)" fill="#784598"/>
  </g>
</svg>
